<svg xmlns="http://www.w3.org/2000/svg" viewBox="0 0 512 512" width="512" height="512">
  <rect width="512" height="512" rx="85" fill="#1f2937"/>
  <path d="M209.6,385.1c-4.3-3.2-10.1-6.1-17.1-9.1c-18.7-7.7-34.1-14.1-46.4-19.2c-12.3-5.1-20.8-9.1-26.1-12 c-5.3-2.9-9.6-6.7-12.8-11.2c-3.2-4.5-4.8-9.9-4.8-16c0-8.3,2.4-15.2,7.2-21.1c4.8-5.9,11.7-10.1,20.8-13.1 c9.1-3,19.2-4.4,30.7-4.4c12.8,0,24,2.1,33.6,6.1s17.6,10.1,24.3,18.1l-27.7,22.7c-3.2-4.5-6.9-7.7-11.5-9.9 c-4.5-2.2-9.9-3.4-16.3-3.4c-7.7,0-14.1,1.3-19.5,4c-5.4,2.7-8,6.9-8,12.3c0,4,1.6,7.7,4.8,10.9c3.2,3.2,7.7,6.4,13.6,9.3 c5.9,2.9,13.9,6.4,24,10.1c16.8,6.7,30.7,12.5,41.6,17.6c10.9,5.1,19.2,9.3,24.5,12.8c5.3,3.5,9.6,7.7,12.5,12.8 c2.9,5.1,4.4,10.7,4.4,17.1c0,8.8-2.7,16.3-8,22.1c-5.3,5.8-12.8,10.4-22.7,13.3c-9.9,2.9-21.1,4.4-33.6,4.4 c-14.1,0-26.4-2.1-36.8-6.7s-19.2-11.5-26.1-20.8l27.2-21.6C249.1,375.2,252.3,379.2,256.8,381.9z M421.1,158.7 L301.3,384h-44L378.7,158.7H421.1z" fill="#e5e7eb"/>
</svg>
