<svg xmlns="http://www.w3.org/2000/svg" viewBox="0 0 192 192" width="192" height="192">
  <rect width="192" height="192" rx="32" fill="#1f2937"/>
  <path d="M78.6,144.4c-1.6-1.2-3.8-2.3-6.4-3.4c-7-2.9-12.8-5.3-17.4-7.2c-4.6-1.9-7.8-3.4-9.8-4.5 c-2-1.1-3.6-2.5-4.8-4.2c-1.2-1.7-1.8-3.7-1.8-6c0-3.1,0.9-5.7,2.7-7.9c1.8-2.2,4.4-3.8,7.8-4.9c3.4-1.1,7.2-1.6,11.5-1.6 c4.8,0,9,0.8,12.6,2.3s6.6,3.8,9.1,6.8l-10.4,8.5c-1.2-1.7-2.6-2.9-4.3-3.8c-1.7-0.9-3.7-1.3-6.1-1.3c-2.9,0-5.3,0.5-7.3,1.6 c-2,1.1-3,2.6-3,4.6c0,1.5,0.6,2.9,1.8,4.1c1.2,1.2,2.9,2.4,5.1,3.5c2.2,1.1,5.2,2.4,9,3.8c6.3,2.5,11.5,4.7,15.6,6.6 c4.1,1.9,7.2,3.5,9.2,4.8c2,1.3,3.6,2.9,4.7,4.8c1.1,1.9,1.7,4,1.7,6.4c0,3.3-1,6.1-2.9,8.3c-1.9,2.2-4.8,3.9-8.5,5 c-3.7,1.1-7.9,1.6-12.6,1.6c-5.3,0-9.9-0.8-13.8-2.5S84.1,150,82,146.7l10.2-8.1C93.4,140.7,94.6,142.2,96.3,143.2z M157.9,59.5 L113,144h-16.5L142,59.5H157.9z" fill="#e5e7eb"/>
</svg>
